<svg width="20" height="18" viewBox="0 0 20 18" fill="none" xmlns="http://www.w3.org/2000/svg">
<path d="M12.7092 0.5H5.07481C4.37075 0.5 3.76849 0.916666 3.51401 1.51667L0.952253 7.39167C0.875909 7.58333 0.833496 7.78333 0.833496 8V9.66667C0.833496 10.5833 1.59693 11.3333 2.53002 11.3333H7.88256L7.07671 15.1417L7.05126 15.4083C7.05126 15.75 7.19547 16.0667 7.4245 16.2917L8.32366 17.1667L13.9137 11.675C14.2191 11.375 14.4057 10.9583 14.4057 10.5V2.16667C14.4057 1.25 13.6423 0.5 12.7092 0.5ZM16.1022 0.5V10.5H19.4953V0.5H16.1022Z" fill="#5E5E64"/>
</svg>
