<svg width="28" height="28" viewBox="0 0 28 28" fill="none" xmlns="http://www.w3.org/2000/svg">
<path d="M18.8883 2.33337H9.11165C4.86498 2.33337 2.33331 4.86504 2.33331 9.11171V18.8767C2.33331 23.135 4.86498 25.6667 9.11165 25.6667H18.8766C23.1233 25.6667 25.655 23.135 25.655 18.8884V9.11171C25.6666 4.86504 23.135 2.33337 18.8883 2.33337ZM12.775 20.4284C12.4366 20.7667 11.795 21.0934 11.3283 21.1634L8.45831 21.5717C8.35331 21.5834 8.24831 21.595 8.14331 21.595C7.66498 21.595 7.22165 21.4317 6.90665 21.1167C6.52165 20.7317 6.35831 20.1717 6.45165 19.5534L6.85998 16.6834C6.92998 16.205 7.24498 15.575 7.59498 15.2367L12.7983 10.0334C12.8916 10.2784 12.985 10.5234 13.1133 10.8034C13.23 11.0484 13.3583 11.305 13.4983 11.5384C13.615 11.7367 13.7433 11.9234 13.8483 12.0634C13.9766 12.2617 14.1283 12.4484 14.2216 12.5534C14.28 12.635 14.3266 12.6934 14.35 12.7167C14.6416 13.0667 14.98 13.3934 15.2716 13.6384C15.3533 13.72 15.4 13.7667 15.4233 13.7784C15.5983 13.9184 15.7733 14.0584 15.925 14.1634C16.1116 14.3034 16.2983 14.4317 16.4966 14.5367C16.73 14.6767 16.9866 14.805 17.2433 14.9334C17.5116 15.05 17.7566 15.155 18.0016 15.2367L12.775 20.4284ZM20.265 12.9384L19.1916 14.0234C19.1216 14.0934 19.0283 14.1284 18.935 14.1284C18.9 14.1284 18.8533 14.1284 18.83 14.1167C16.4616 13.44 14.5716 11.55 13.895 9.18171C13.86 9.05337 13.895 8.91337 13.9883 8.83171L15.0733 7.74671C16.8466 5.97337 18.5383 6.00837 20.2766 7.74671C21.1633 8.63337 21.595 9.48504 21.595 10.3717C21.5833 11.2117 21.1516 12.0517 20.265 12.9384Z" fill="#F2B705"/>
</svg>
