<svg width="34" height="41" viewBox="0 0 34 41" fill="none" xmlns="http://www.w3.org/2000/svg">
<g filter="url(#filter0_d_82_862)">
<path d="M29 32.2665H5C4.45333 32.2665 4 31.7679 4 31.1665C4 30.5652 4.45333 30.0665 5 30.0665H29C29.5467 30.0665 30 30.5652 30 31.1665C30 31.7679 29.5467 32.2665 29 32.2665Z" fill="#F8FAFC"/>
<path d="M26.36 5.10385C23.7734 2.25851 21.24 2.18518 18.5867 5.10385L16.9734 6.87852C16.84 7.02518 16.7867 7.25985 16.84 7.46518C17.8534 11.3518 20.68 14.4612 24.2134 15.5758C24.2667 15.5905 24.32 15.6052 24.3734 15.6052C24.52 15.6052 24.6534 15.5465 24.76 15.4292L26.36 13.6545C27.68 12.2172 28.32 10.8238 28.32 9.41585C28.3334 7.96385 27.6934 6.55585 26.36 5.10385Z" fill="#F8FAFC"/>
<path d="M21.8133 16.9105C21.4267 16.7052 21.0534 16.4998 20.6934 16.2652C20.4 16.0745 20.12 15.8692 19.84 15.6492C19.6134 15.4878 19.3467 15.2532 19.0933 15.0185C19.0667 15.0038 18.9733 14.9158 18.8667 14.7985C18.4267 14.3878 17.9334 13.8598 17.4934 13.2732C17.4534 13.2438 17.3867 13.1412 17.2934 13.0092C17.16 12.8332 16.9334 12.5398 16.7334 12.2025C16.5734 11.9825 16.3867 11.6598 16.2134 11.3372C16 10.9412 15.8134 10.5452 15.6267 10.1345C15.5609 9.97945 15.5001 9.82623 15.4431 9.67546C15.3082 9.31864 14.8443 9.22046 14.5877 9.50273L6.78668 18.0838C6.61335 18.2745 6.45335 18.6412 6.41335 18.8905L5.69335 24.5078C5.56002 25.5052 5.81335 26.4438 6.37335 27.0745C6.85335 27.5878 7.52002 27.8665 8.24002 27.8665C8.40002 27.8665 8.56002 27.8518 8.72002 27.8225L13.84 27.0305C14.08 26.9865 14.4134 26.8105 14.5734 26.6198L22.4589 17.9457C22.6944 17.6867 22.5981 17.2705 22.2789 17.1268C22.1278 17.0588 21.9738 16.987 21.8133 16.9105Z" fill="#F8FAFC"/>
</g>
<defs>
<filter id="filter0_d_82_862" x="-3" y="-0.00012207" width="40" height="43.2" filterUnits="userSpaceOnUse" color-interpolation-filters="sRGB">
<feFlood flood-opacity="0" result="BackgroundImageFix"/>
<feColorMatrix in="SourceAlpha" type="matrix" values="0 0 0 0 0 0 0 0 0 0 0 0 0 0 0 0 0 0 127 0" result="hardAlpha"/>
<feOffset dy="4"/>
<feGaussianBlur stdDeviation="2"/>
<feComposite in2="hardAlpha" operator="out"/>
<feColorMatrix type="matrix" values="0 0 0 0 0 0 0 0 0 0 0 0 0 0 0 0 0 0 0.25 0"/>
<feBlend mode="normal" in2="BackgroundImageFix" result="effect1_dropShadow_82_862"/>
<feBlend mode="normal" in="SourceGraphic" in2="effect1_dropShadow_82_862" result="shape"/>
</filter>
</defs>
</svg>
