<svg width="36" height="36" viewBox="0 0 36 36" fill="none" xmlns="http://www.w3.org/2000/svg">
<path d="M10.1124 8.33684L15.1461 1.46842C15.5056 0.963157 15.9326 0.592106 16.427 0.355263C16.9213 0.118421 17.4382 0 17.9775 0C18.5169 0 19.0337 0.118421 19.5281 0.355263C20.0225 0.592106 20.4494 0.963157 20.809 1.46842L25.8427 8.33684L33.4831 11.0368C34.2622 11.2895 34.8764 11.7553 35.3258 12.4342C35.7753 13.1132 36 13.8632 36 14.6842C36 15.0632 35.9476 15.4421 35.8427 15.8211C35.7378 16.2 35.5655 16.5632 35.3258 16.9105L30.382 24.3L30.5618 32.0684C30.5918 33.1737 30.2472 34.1053 29.5281 34.8632C28.809 35.6211 27.97 36 27.0112 36C26.9513 36 26.6217 35.9526 26.0225 35.8579L17.9775 33.4895L9.93258 35.8579C9.78277 35.9211 9.61798 35.9605 9.4382 35.9763C9.25843 35.9921 9.09363 36 8.94382 36C7.98502 36 7.14607 35.6211 6.42697 34.8632C5.70787 34.1053 5.3633 33.1737 5.39326 32.0684L5.57303 24.2526L0.674157 16.9105C0.434457 16.5632 0.262172 16.2 0.157303 15.8211C0.0524345 15.4421 0 15.0632 0 14.6842C0 13.8947 0.217228 13.1605 0.651685 12.4816C1.08614 11.8026 1.69288 11.3211 2.47191 11.0368L10.1124 8.33684Z" fill="#F2B705"/>
</svg>
