<svg width="21" height="21" viewBox="0 0 21 21" fill="none" xmlns="http://www.w3.org/2000/svg">
<path d="M0.5 20.5H2.5C3.05 20.5 3.5 20 3.5 19.3889V9.38889C3.5 8.77778 3.05 8.27778 2.5 8.27778H0.5V20.5ZM20.33 12.5889C20.44 12.3111 20.5 12.0111 20.5 11.7V10.5C20.5 9.27778 19.6 8.27778 18.5 8.27778H13L13.92 3.11111C13.97 2.86667 13.94 2.6 13.84 2.37778C13.61 1.87778 13.32 1.42222 12.96 1.02222L12.5 0.5L6.09 7.62222C5.71 8.04444 5.5 8.61111 5.5 9.2V17.9111C5.5 19.3333 6.55 20.5 7.84 20.5H15.95C16.65 20.5 17.31 20.0889 17.67 19.4222L20.33 12.5889Z" fill="#FF5B5B"/>
</svg>
